<svg xmlns="http://www.w3.org/2000/svg" viewBox="0 0 800 400" fill="none">
  <defs>
    <linearGradient id="tg-grad1" x1="0" y1="0" x2="1" y2="1">
      <stop offset="0%" stop-color="#059669"/>
      <stop offset="100%" stop-color="#10b981"/>
    </linearGradient>
    <linearGradient id="tg-grad2" x1="0" y1="0" x2="1" y2="1">
      <stop offset="0%" stop-color="#0ea5e9"/>
      <stop offset="100%" stop-color="#06b6d4"/>
    </linearGradient>
    <linearGradient id="tg-grad3" x1="0" y1="0" x2="1" y2="1">
      <stop offset="0%" stop-color="#6366f1"/>
      <stop offset="100%" stop-color="#8b5cf6"/>
    </linearGradient>
  </defs>
  <!-- Main document -->
  <rect x="250" y="30" width="300" height="340" rx="12" fill="rgba(15,23,42,0.6)" stroke="rgba(5,150,105,0.3)" stroke-width="1.5"/>
  <!-- Document header -->
  <rect x="250" y="30" width="300" height="60" rx="12" fill="rgba(5,150,105,0.1)"/>
  <rect x="250" y="78" width="300" height="12" fill="rgba(5,150,105,0.1)"/>
  <text x="400" y="62" font-family="system-ui" font-size="14" font-weight="600" fill="rgba(255,255,255,0.7)" text-anchor="middle">Grant Application</text>
  <text x="400" y="80" font-family="system-ui" font-size="9" fill="rgba(255,255,255,0.3)" text-anchor="middle">Technology Modernization Fund</text>
  <!-- Checklist items -->
  <rect x="278" y="108" width="16" height="16" rx="3" stroke="url(#tg-grad1)" stroke-width="1.5" fill="rgba(16,185,129,0.1)"/>
  <polyline points="282,116 286,120 292,112" stroke="#10b981" stroke-width="2" fill="none" stroke-linecap="round" stroke-linejoin="round"/>
  <rect x="304" y="110" width="140" height="8" rx="4" fill="rgba(255,255,255,0.15)"/>
  <text x="304" y="132" font-family="system-ui" font-size="8" fill="rgba(255,255,255,0.35)">Technology Needs Assessment</text>
  <rect x="278" y="150" width="16" height="16" rx="3" stroke="url(#tg-grad1)" stroke-width="1.5" fill="rgba(16,185,129,0.1)"/>
  <polyline points="282,158 286,162 292,154" stroke="#10b981" stroke-width="2" fill="none" stroke-linecap="round" stroke-linejoin="round"/>
  <rect x="304" y="152" width="120" height="8" rx="4" fill="rgba(255,255,255,0.15)"/>
  <text x="304" y="174" font-family="system-ui" font-size="8" fill="rgba(255,255,255,0.35)">Budget &amp; Implementation Plan</text>
  <rect x="278" y="192" width="16" height="16" rx="3" stroke="url(#tg-grad1)" stroke-width="1.5" fill="rgba(16,185,129,0.1)"/>
  <polyline points="282,200 286,204 292,196" stroke="#10b981" stroke-width="2" fill="none" stroke-linecap="round" stroke-linejoin="round"/>
  <rect x="304" y="194" width="160" height="8" rx="4" fill="rgba(255,255,255,0.15)"/>
  <text x="304" y="216" font-family="system-ui" font-size="8" fill="rgba(255,255,255,0.35)">Community Impact Narrative</text>
  <rect x="278" y="234" width="16" height="16" rx="3" stroke="rgba(14,165,233,0.4)" stroke-width="1.5" fill="rgba(14,165,233,0.05)"/>
  <rect x="304" y="236" width="130" height="8" rx="4" fill="rgba(255,255,255,0.1)"/>
  <text x="304" y="258" font-family="system-ui" font-size="8" fill="rgba(255,255,255,0.35)">Sustainability Plan</text>
  <rect x="278" y="276" width="16" height="16" rx="3" stroke="rgba(14,165,233,0.4)" stroke-width="1.5" fill="rgba(14,165,233,0.05)"/>
  <rect x="304" y="278" width="110" height="8" rx="4" fill="rgba(255,255,255,0.1)"/>
  <text x="304" y="300" font-family="system-ui" font-size="8" fill="rgba(255,255,255,0.35)">Letters of Support</text>
  <!-- Progress bar -->
  <rect x="278" y="325" width="244" height="8" rx="4" fill="rgba(255,255,255,0.08)"/>
  <rect x="278" y="325" width="146" height="8" rx="4" fill="url(#tg-grad1)"/>
  <text x="278" y="348" font-family="system-ui" font-size="9" fill="rgba(16,185,129,0.7)">60% Complete</text>
  <!-- Left side - funding sources -->
  <rect x="60" y="60" width="160" height="55" rx="10" fill="rgba(5,150,105,0.08)" stroke="rgba(5,150,105,0.2)" stroke-width="1"/>
  <circle cx="86" cy="88" r="14" fill="rgba(16,185,129,0.15)" stroke="rgba(16,185,129,0.3)" stroke-width="1"/>
  <text x="86" y="93" font-family="system-ui" font-size="12" font-weight="700" fill="#10b981" text-anchor="middle">$</text>
  <text x="110" y="82" font-family="system-ui" font-size="10" fill="rgba(255,255,255,0.5)">Foundation Grants</text>
  <text x="110" y="100" font-family="system-ui" font-size="14" font-weight="600" fill="url(#tg-grad1)">$25K - $100K</text>
  <rect x="60" y="130" width="160" height="55" rx="10" fill="rgba(14,165,233,0.08)" stroke="rgba(14,165,233,0.2)" stroke-width="1"/>
  <circle cx="86" cy="158" r="14" fill="rgba(14,165,233,0.15)" stroke="rgba(14,165,233,0.3)" stroke-width="1"/>
  <text x="86" y="163" font-family="system-ui" font-size="12" font-weight="700" fill="#0ea5e9" text-anchor="middle">$</text>
  <text x="110" y="152" font-family="system-ui" font-size="10" fill="rgba(255,255,255,0.5)">Corporate Programs</text>
  <text x="110" y="170" font-family="system-ui" font-size="14" font-weight="600" fill="url(#tg-grad2)">$10K - $50K</text>
  <rect x="60" y="200" width="160" height="55" rx="10" fill="rgba(99,102,241,0.08)" stroke="rgba(99,102,241,0.2)" stroke-width="1"/>
  <circle cx="86" cy="228" r="14" fill="rgba(99,102,241,0.15)" stroke="rgba(99,102,241,0.3)" stroke-width="1"/>
  <text x="86" y="233" font-family="system-ui" font-size="12" font-weight="700" fill="#6366f1" text-anchor="middle">$</text>
  <text x="110" y="222" font-family="system-ui" font-size="10" fill="rgba(255,255,255,0.5)">Government (USDA)</text>
  <text x="110" y="240" font-family="system-ui" font-size="14" font-weight="600" fill="url(#tg-grad3)">$50K - $500K</text>
  <!-- Right side - outcomes -->
  <rect x="580" y="80" width="160" height="240" rx="12" fill="rgba(5,150,105,0.06)" stroke="rgba(5,150,105,0.15)" stroke-width="1"/>
  <text x="660" y="108" font-family="system-ui" font-size="11" font-weight="600" fill="rgba(255,255,255,0.5)" text-anchor="middle">Projected Impact</text>
  <text x="660" y="150" font-family="system-ui" font-size="28" font-weight="700" fill="url(#tg-grad1)" text-anchor="middle">3x</text>
  <text x="660" y="168" font-family="system-ui" font-size="9" fill="rgba(255,255,255,0.4)" text-anchor="middle">More families served</text>
  <line x1="610" y1="185" x2="710" y2="185" stroke="rgba(255,255,255,0.06)" stroke-width="1"/>
  <text x="660" y="215" font-family="system-ui" font-size="28" font-weight="700" fill="url(#tg-grad2)" text-anchor="middle">40%</text>
  <text x="660" y="233" font-family="system-ui" font-size="9" fill="rgba(255,255,255,0.4)" text-anchor="middle">Efficiency improvement</text>
  <line x1="610" y1="250" x2="710" y2="250" stroke="rgba(255,255,255,0.06)" stroke-width="1"/>
  <text x="660" y="280" font-family="system-ui" font-size="28" font-weight="700" fill="url(#tg-grad3)" text-anchor="middle">$0</text>
  <text x="660" y="298" font-family="system-ui" font-size="9" fill="rgba(255,255,255,0.4)" text-anchor="middle">Ongoing license cost</text>
</svg>
